<mxfile host="app.diagrams.net" modified="2021-06-11T09:35:55.941Z" agent="5.0 (Windows NT 10.0; Win64; x64) AppleWebKit/537.36 (KHTML, like Gecko) Chrome/91.0.4472.77 Safari/537.36" etag="tr873Yqs03ED8NA2sT7C" version="14.1.1" type="github">
  <diagram id="C5RBs43oDa-KdzZeNtuy" name="Page-1">
    <mxGraphModel dx="1038" dy="547" grid="1" gridSize="10" guides="0" tooltips="1" connect="1" arrows="1" fold="1" page="1" pageScale="1" pageWidth="1169" pageHeight="1654" math="0" shadow="0">
      <root>
        <mxCell id="WIyWlLk6GJQsqaUBKTNV-0" />
        <mxCell id="WIyWlLk6GJQsqaUBKTNV-1" parent="WIyWlLk6GJQsqaUBKTNV-0" />
        <mxCell id="WIyWlLk6GJQsqaUBKTNV-2" value="" style="rounded=0;html=1;jettySize=auto;orthogonalLoop=1;fontSize=11;endArrow=block;endFill=0;endSize=8;strokeWidth=1;shadow=0;labelBackgroundColor=none;edgeStyle=orthogonalEdgeStyle;" parent="WIyWlLk6GJQsqaUBKTNV-1" source="WIyWlLk6GJQsqaUBKTNV-3" target="WIyWlLk6GJQsqaUBKTNV-6" edge="1">
          <mxGeometry relative="1" as="geometry">
            <Array as="points">
              <mxPoint x="214" y="70" />
              <mxPoint x="214" y="70" />
            </Array>
          </mxGeometry>
        </mxCell>
        <mxCell id="WIyWlLk6GJQsqaUBKTNV-3" value="修改状态为已查验" style="rounded=1;whiteSpace=wrap;html=1;fontSize=12;glass=0;strokeWidth=1;shadow=0;" parent="WIyWlLk6GJQsqaUBKTNV-1" vertex="1">
          <mxGeometry x="157" y="20" width="120" height="40" as="geometry" />
        </mxCell>
        <mxCell id="WIyWlLk6GJQsqaUBKTNV-4" value="No" style="rounded=0;html=1;jettySize=auto;orthogonalLoop=1;fontSize=11;endArrow=block;endFill=0;endSize=8;strokeWidth=1;shadow=0;labelBackgroundColor=none;edgeStyle=orthogonalEdgeStyle;" parent="WIyWlLk6GJQsqaUBKTNV-1" edge="1">
          <mxGeometry y="20" relative="1" as="geometry">
            <mxPoint as="offset" />
            <mxPoint x="211" y="211" as="sourcePoint" />
            <mxPoint x="211" y="241" as="targetPoint" />
          </mxGeometry>
        </mxCell>
        <mxCell id="WIyWlLk6GJQsqaUBKTNV-6" value="选中数据的&lt;br&gt;制卡状态&lt;br&gt;为&quot;已查验&quot;" style="rhombus;whiteSpace=wrap;html=1;shadow=0;fontFamily=Helvetica;fontSize=12;align=center;strokeWidth=1;spacing=6;spacingTop=-4;" parent="WIyWlLk6GJQsqaUBKTNV-1" vertex="1">
          <mxGeometry x="160" y="120" width="104" height="90" as="geometry" />
        </mxCell>
        <mxCell id="WIyWlLk6GJQsqaUBKTNV-7" value="选中数据制卡状态是【已查验】" style="rounded=1;whiteSpace=wrap;html=1;fontSize=12;glass=0;strokeWidth=1;shadow=0;" parent="WIyWlLk6GJQsqaUBKTNV-1" vertex="1">
          <mxGeometry x="377" y="147" width="120" height="40" as="geometry" />
        </mxCell>
        <mxCell id="WIyWlLk6GJQsqaUBKTNV-10" value="选中数据的&lt;br&gt;制卡状态&lt;br&gt;为&quot;已打印&quot;" style="rhombus;whiteSpace=wrap;html=1;shadow=0;fontFamily=Helvetica;fontSize=12;align=center;strokeWidth=1;spacing=6;spacingTop=-4;" parent="WIyWlLk6GJQsqaUBKTNV-1" vertex="1">
          <mxGeometry x="154" y="241" width="114" height="110" as="geometry" />
        </mxCell>
        <mxCell id="Ysg9XGIrSXdzxJQqvf4c-11" value="" style="edgeStyle=orthogonalEdgeStyle;rounded=0;html=1;jettySize=auto;orthogonalLoop=1;fontSize=11;endArrow=block;endFill=0;endSize=8;strokeWidth=1;shadow=0;labelBackgroundColor=none;" parent="WIyWlLk6GJQsqaUBKTNV-1" edge="1">
          <mxGeometry x="0.2727" y="30" relative="1" as="geometry">
            <mxPoint as="offset" />
            <mxPoint x="265" y="164.66" as="sourcePoint" />
            <mxPoint x="375" y="164.66" as="targetPoint" />
          </mxGeometry>
        </mxCell>
        <mxCell id="Ysg9XGIrSXdzxJQqvf4c-12" value="Yes" style="text;html=1;align=center;verticalAlign=middle;resizable=0;points=[];autosize=1;strokeColor=none;" parent="WIyWlLk6GJQsqaUBKTNV-1" vertex="1">
          <mxGeometry x="299" y="130" width="30" height="20" as="geometry" />
        </mxCell>
        <mxCell id="Ysg9XGIrSXdzxJQqvf4c-19" value="确认" style="rounded=0;html=1;jettySize=auto;orthogonalLoop=1;fontSize=11;endArrow=block;endFill=0;endSize=8;strokeWidth=1;shadow=0;labelBackgroundColor=none;edgeStyle=orthogonalEdgeStyle;" parent="WIyWlLk6GJQsqaUBKTNV-1" edge="1">
          <mxGeometry x="0.0169" y="26" relative="1" as="geometry">
            <mxPoint as="offset" />
            <mxPoint x="212" y="352" as="sourcePoint" />
            <mxPoint x="212" y="411" as="targetPoint" />
          </mxGeometry>
        </mxCell>
        <mxCell id="9AU9Q08pKHK3YimSfZZ_-1" value="修改卡状态modifyCardState(1)" style="rounded=1;whiteSpace=wrap;html=1;fontSize=12;glass=0;strokeWidth=1;shadow=0;" parent="WIyWlLk6GJQsqaUBKTNV-1" vertex="1">
          <mxGeometry x="149" y="411" width="137" height="60" as="geometry" />
        </mxCell>
        <mxCell id="9AU9Q08pKHK3YimSfZZ_-2" value="制卡操作&lt;br&gt;类型为0" style="rhombus;whiteSpace=wrap;html=1;" parent="WIyWlLk6GJQsqaUBKTNV-1" vertex="1">
          <mxGeometry x="165" y="550" width="90" height="80" as="geometry" />
        </mxCell>
        <mxCell id="9AU9Q08pKHK3YimSfZZ_-4" value="Yes" style="rounded=0;html=1;jettySize=auto;orthogonalLoop=1;fontSize=11;endArrow=block;endFill=0;endSize=8;strokeWidth=1;shadow=0;labelBackgroundColor=none;edgeStyle=orthogonalEdgeStyle;" parent="WIyWlLk6GJQsqaUBKTNV-1" edge="1">
          <mxGeometry x="0.25" y="20" relative="1" as="geometry">
            <mxPoint as="offset" />
            <mxPoint x="210" y="550" as="targetPoint" />
            <mxPoint x="210" y="470" as="sourcePoint" />
          </mxGeometry>
        </mxCell>
        <mxCell id="9AU9Q08pKHK3YimSfZZ_-6" value="修改库存modifyStockInfo(手动作废，0)" style="rounded=1;whiteSpace=wrap;html=1;fontSize=12;glass=0;strokeWidth=1;shadow=0;" parent="WIyWlLk6GJQsqaUBKTNV-1" vertex="1">
          <mxGeometry x="364" y="561" width="252" height="60" as="geometry" />
        </mxCell>
        <mxCell id="9AU9Q08pKHK3YimSfZZ_-11" value="制卡操作&lt;br&gt;类型为1" style="rhombus;whiteSpace=wrap;html=1;" parent="WIyWlLk6GJQsqaUBKTNV-1" vertex="1">
          <mxGeometry x="165" y="671" width="90" height="80" as="geometry" />
        </mxCell>
        <mxCell id="9AU9Q08pKHK3YimSfZZ_-12" value="直接提示修改成功" style="rounded=1;whiteSpace=wrap;html=1;fontSize=12;glass=0;strokeWidth=1;shadow=0;" parent="WIyWlLk6GJQsqaUBKTNV-1" vertex="1">
          <mxGeometry x="364" y="680" width="252" height="60" as="geometry" />
        </mxCell>
        <mxCell id="9AU9Q08pKHK3YimSfZZ_-14" value="申请类型为&lt;br&gt;【变更/延期】" style="rhombus;whiteSpace=wrap;html=1;" parent="WIyWlLk6GJQsqaUBKTNV-1" vertex="1">
          <mxGeometry x="166" y="791" width="90" height="80" as="geometry" />
        </mxCell>
        <mxCell id="9AU9Q08pKHK3YimSfZZ_-15" value="修改库存modifyStockInfo(手动作废，0)" style="rounded=1;whiteSpace=wrap;html=1;fontSize=12;glass=0;strokeWidth=1;shadow=0;" parent="WIyWlLk6GJQsqaUBKTNV-1" vertex="1">
          <mxGeometry x="368" y="801" width="252" height="60" as="geometry" />
        </mxCell>
        <mxCell id="9AU9Q08pKHK3YimSfZZ_-16" value="申请类型为【变更/延期】，&lt;br&gt;确认未进行打印发行吗" style="rhombus;whiteSpace=wrap;html=1;" parent="WIyWlLk6GJQsqaUBKTNV-1" vertex="1">
          <mxGeometry x="120" y="910" width="180" height="130" as="geometry" />
        </mxCell>
        <mxCell id="9AU9Q08pKHK3YimSfZZ_-17" value="修改库存modifyStockInfo(手动作废，0)" style="rounded=1;whiteSpace=wrap;html=1;fontSize=12;glass=0;strokeWidth=1;shadow=0;" parent="WIyWlLk6GJQsqaUBKTNV-1" vertex="1">
          <mxGeometry x="410" y="949" width="252" height="60" as="geometry" />
        </mxCell>
        <mxCell id="9AU9Q08pKHK3YimSfZZ_-18" value="No" style="rounded=0;html=1;jettySize=auto;orthogonalLoop=1;fontSize=11;endArrow=block;endFill=0;endSize=8;strokeWidth=1;shadow=0;labelBackgroundColor=none;edgeStyle=orthogonalEdgeStyle;" parent="WIyWlLk6GJQsqaUBKTNV-1" edge="1">
          <mxGeometry x="0.25" y="20" relative="1" as="geometry">
            <mxPoint as="offset" />
            <mxPoint x="210" y="670" as="targetPoint" />
            <mxPoint x="210" y="630" as="sourcePoint" />
          </mxGeometry>
        </mxCell>
        <mxCell id="9AU9Q08pKHK3YimSfZZ_-19" value="No" style="rounded=0;html=1;jettySize=auto;orthogonalLoop=1;fontSize=11;endArrow=block;endFill=0;endSize=8;strokeWidth=1;shadow=0;labelBackgroundColor=none;edgeStyle=orthogonalEdgeStyle;" parent="WIyWlLk6GJQsqaUBKTNV-1" edge="1">
          <mxGeometry x="0.25" y="20" relative="1" as="geometry">
            <mxPoint as="offset" />
            <mxPoint x="210" y="790" as="targetPoint" />
            <mxPoint x="210" y="750" as="sourcePoint" />
          </mxGeometry>
        </mxCell>
        <mxCell id="9AU9Q08pKHK3YimSfZZ_-20" value="Yes" style="rounded=0;html=1;jettySize=auto;orthogonalLoop=1;fontSize=11;endArrow=block;endFill=0;endSize=8;strokeWidth=1;shadow=0;labelBackgroundColor=none;edgeStyle=orthogonalEdgeStyle;" parent="WIyWlLk6GJQsqaUBKTNV-1" edge="1">
          <mxGeometry x="0.5" y="20" relative="1" as="geometry">
            <mxPoint as="offset" />
            <mxPoint x="210" y="910" as="targetPoint" />
            <mxPoint x="210" y="870" as="sourcePoint" />
          </mxGeometry>
        </mxCell>
        <mxCell id="9AU9Q08pKHK3YimSfZZ_-23" value="" style="endArrow=classic;html=1;" parent="WIyWlLk6GJQsqaUBKTNV-1" edge="1">
          <mxGeometry width="50" height="50" relative="1" as="geometry">
            <mxPoint x="254" y="590" as="sourcePoint" />
            <mxPoint x="364" y="590.5" as="targetPoint" />
          </mxGeometry>
        </mxCell>
        <mxCell id="9AU9Q08pKHK3YimSfZZ_-27" value="Yes" style="edgeLabel;html=1;align=center;verticalAlign=middle;resizable=0;points=[];" parent="9AU9Q08pKHK3YimSfZZ_-23" vertex="1" connectable="0">
          <mxGeometry x="-0.5307" y="-2" relative="1" as="geometry">
            <mxPoint y="-12.12" as="offset" />
          </mxGeometry>
        </mxCell>
        <mxCell id="9AU9Q08pKHK3YimSfZZ_-28" value="Yes" style="edgeLabel;html=1;align=center;verticalAlign=middle;resizable=0;points=[];" parent="9AU9Q08pKHK3YimSfZZ_-23" vertex="1" connectable="0">
          <mxGeometry x="-0.5307" y="-2" relative="1" as="geometry">
            <mxPoint x="10.01" y="107.88" as="offset" />
          </mxGeometry>
        </mxCell>
        <mxCell id="9AU9Q08pKHK3YimSfZZ_-29" value="No" style="edgeLabel;html=1;align=center;verticalAlign=middle;resizable=0;points=[];" parent="9AU9Q08pKHK3YimSfZZ_-23" vertex="1" connectable="0">
          <mxGeometry x="-0.5307" y="-2" relative="1" as="geometry">
            <mxPoint x="20.009999999999998" y="227.88" as="offset" />
          </mxGeometry>
        </mxCell>
        <mxCell id="9AU9Q08pKHK3YimSfZZ_-24" value="" style="endArrow=classic;html=1;" parent="WIyWlLk6GJQsqaUBKTNV-1" edge="1">
          <mxGeometry width="50" height="50" relative="1" as="geometry">
            <mxPoint x="254" y="711" as="sourcePoint" />
            <mxPoint x="364" y="711.5" as="targetPoint" />
          </mxGeometry>
        </mxCell>
        <mxCell id="9AU9Q08pKHK3YimSfZZ_-25" value="" style="endArrow=classic;html=1;" parent="WIyWlLk6GJQsqaUBKTNV-1" edge="1">
          <mxGeometry width="50" height="50" relative="1" as="geometry">
            <mxPoint x="256" y="831" as="sourcePoint" />
            <mxPoint x="366" y="831.5" as="targetPoint" />
          </mxGeometry>
        </mxCell>
        <mxCell id="9AU9Q08pKHK3YimSfZZ_-26" value="" style="endArrow=classic;html=1;" parent="WIyWlLk6GJQsqaUBKTNV-1" edge="1">
          <mxGeometry width="50" height="50" relative="1" as="geometry">
            <mxPoint x="300" y="974" as="sourcePoint" />
            <mxPoint x="410" y="974.5" as="targetPoint" />
          </mxGeometry>
        </mxCell>
        <mxCell id="9AU9Q08pKHK3YimSfZZ_-30" value="No" style="text;html=1;align=center;verticalAlign=middle;resizable=0;points=[];autosize=1;" parent="WIyWlLk6GJQsqaUBKTNV-1" vertex="1">
          <mxGeometry x="340" y="950" width="30" height="20" as="geometry" />
        </mxCell>
        <mxCell id="9AU9Q08pKHK3YimSfZZ_-32" value="Yes" style="rounded=0;html=1;jettySize=auto;orthogonalLoop=1;fontSize=11;endArrow=block;endFill=0;endSize=8;strokeWidth=1;shadow=0;labelBackgroundColor=none;edgeStyle=orthogonalEdgeStyle;" parent="WIyWlLk6GJQsqaUBKTNV-1" edge="1">
          <mxGeometry x="0.25" y="20" relative="1" as="geometry">
            <mxPoint as="offset" />
            <mxPoint x="210" y="1100" as="targetPoint" />
            <mxPoint x="210" y="1040" as="sourcePoint" />
          </mxGeometry>
        </mxCell>
        <mxCell id="9AU9Q08pKHK3YimSfZZ_-33" value="直接提示修改成功" style="rounded=1;whiteSpace=wrap;html=1;fontSize=12;glass=0;strokeWidth=1;shadow=0;" parent="WIyWlLk6GJQsqaUBKTNV-1" vertex="1">
          <mxGeometry x="100" y="1100" width="252" height="60" as="geometry" />
        </mxCell>
        <mxCell id="2-cjMzbhwPoZS_aQlRHM-0" value="修改状态，核验通过&lt;br&gt;submitChkOK(2)" style="rounded=1;whiteSpace=wrap;html=1;fontSize=12;glass=0;strokeWidth=1;shadow=0;" vertex="1" parent="WIyWlLk6GJQsqaUBKTNV-1">
          <mxGeometry x="370" y="270" width="120" height="40" as="geometry" />
        </mxCell>
        <mxCell id="2-cjMzbhwPoZS_aQlRHM-2" value="推送查验结果给中科软" style="rounded=1;whiteSpace=wrap;html=1;fontSize=12;glass=0;strokeWidth=1;shadow=0;" vertex="1" parent="WIyWlLk6GJQsqaUBKTNV-1">
          <mxGeometry x="570" y="270" width="140" height="40" as="geometry" />
        </mxCell>
        <mxCell id="2-cjMzbhwPoZS_aQlRHM-3" value="&lt;span&gt;数据库记录制卡结果&lt;/span&gt;" style="rounded=1;whiteSpace=wrap;html=1;fontSize=12;glass=0;strokeWidth=1;shadow=0;" vertex="1" parent="WIyWlLk6GJQsqaUBKTNV-1">
          <mxGeometry x="790" y="270" width="140" height="40" as="geometry" />
        </mxCell>
      </root>
    </mxGraphModel>
  </diagram>
</mxfile>
